<svg width="42" height="42" viewBox="0 0 42 42" fill="none" xmlns="http://www.w3.org/2000/svg">
<path fill-rule="evenodd" clip-rule="evenodd" d="M32.293 13.0805C25.2639 11.3803 16.7362 11.3803 9.70705 13.0805C8.83681 13.2921 8.13794 13.9205 7.80529 14.8109C6.91826 17.178 5.8397 21.3494 5.4701 27.1051C5.29874 29.8032 7.16521 31.3807 9.90361 32.76C10.0279 32.8221 10.0767 32.8104 10.1388 32.7852C10.2598 32.7381 10.4664 32.6004 10.7403 32.2745C11.293 31.6193 11.8037 30.5911 12.2623 29.5562C12.6039 28.7858 13.1633 28.132 13.8716 27.6753C14.5799 27.2187 15.4062 26.979 16.249 26.9858H25.7511C27.4781 26.9858 29.0321 27.9653 29.7377 29.5562C30.1963 30.5911 30.7071 31.6176 31.2615 32.2745C31.5353 32.6004 31.7403 32.7381 31.8612 32.7852C31.9251 32.8104 31.9721 32.8221 32.0964 32.76C34.8583 31.3689 36.6996 29.778 36.5283 27.1051C36.162 21.3494 35.0835 17.1763 34.1947 14.8092C33.8621 13.9188 33.1649 13.2921 32.293 13.0805ZM9.11402 10.631C16.5329 8.83677 25.4671 8.83677 32.886 10.631C34.6131 11.051 35.9453 12.2976 36.5551 13.9255C37.5363 16.5463 38.6619 20.9647 39.0432 26.9455C39.3221 31.2933 36.0864 33.5714 33.2304 35.0095C32.461 35.3976 31.668 35.4161 30.9406 35.1321C30.2719 34.8684 29.7411 34.3829 29.3328 33.8973C28.5231 32.9347 27.888 31.6025 27.4344 30.5793C27.2911 30.2541 27.0548 29.9786 26.7553 29.7873C26.4558 29.596 26.1064 29.4975 25.7511 29.5041H16.249C15.493 29.5041 14.8579 29.9208 14.5656 30.5793C14.112 31.6025 13.4787 32.9347 12.6672 33.8973C12.259 34.3829 11.7298 34.8684 11.0595 35.1305C10.3337 35.4161 9.53905 35.3993 8.76961 35.0095C5.94721 33.5882 2.67794 31.3253 2.95682 26.9455C3.33818 20.9647 4.46378 16.5463 5.4449 13.9255C6.05473 12.2959 7.38698 11.0477 9.11402 10.631ZM13.7592 6.87453C13.8001 7.03493 13.8089 7.2018 13.7853 7.36561C13.7616 7.52942 13.7059 7.68697 13.6214 7.82926C13.5368 7.97154 13.425 8.09577 13.2925 8.19485C13.1599 8.29393 13.0091 8.36591 12.8487 8.40669L9.55081 9.24669C9.22689 9.32912 8.88349 9.2795 8.59615 9.10873C8.30882 8.93797 8.10108 8.66006 8.01865 8.33613C7.93623 8.01221 7.98585 7.66881 8.15661 7.38147C8.32738 7.09414 8.60529 6.8864 8.92921 6.80397L12.2271 5.96397C12.3874 5.92312 12.5543 5.91427 12.7181 5.93792C12.8819 5.96158 13.0395 6.01727 13.1818 6.10183C13.3241 6.18639 13.4483 6.29815 13.5474 6.43074C13.6464 6.56332 13.7184 6.71412 13.7592 6.87453ZM28.1787 6.87957C28.2189 6.71907 28.2904 6.56806 28.389 6.43518C28.4876 6.3023 28.6114 6.19015 28.7534 6.10512C28.8954 6.0201 29.0527 5.96388 29.2164 5.93966C29.3801 5.91544 29.547 5.9237 29.7075 5.96397L33.0675 6.80397C33.3916 6.88529 33.6702 7.09204 33.8419 7.37875C34.0136 7.66545 34.0644 8.00863 33.9831 8.33277C33.9017 8.65692 33.695 8.93549 33.4083 9.1072C33.1216 9.27891 32.7784 9.32969 32.4543 9.24837L29.0943 8.40837C28.9337 8.36812 28.7827 8.29664 28.6499 8.19802C28.517 8.09941 28.4048 7.97558 28.3198 7.83362C28.2348 7.69165 28.1786 7.53433 28.1543 7.37063C28.1301 7.20694 28.1384 7.04008 28.1787 6.87957Z" fill="white"/>
<path fill-rule="evenodd" clip-rule="evenodd" d="M16.8504 16.3749C17.0864 16.6112 17.2189 16.9314 17.2189 17.2653C17.2189 17.5992 17.0864 17.9195 16.8504 18.1557L15.2208 19.7853L16.8504 21.4149C17.073 21.6538 17.1942 21.9697 17.1884 22.2961C17.1826 22.6226 17.0504 22.934 16.8196 23.1649C16.5887 23.3957 16.2773 23.5279 15.9508 23.5337C15.6244 23.5395 15.3085 23.4183 15.0696 23.1957L13.44 21.5661L11.8104 23.1957C11.6951 23.3195 11.556 23.4188 11.4014 23.4877C11.2469 23.5565 11.08 23.5936 10.9108 23.5966C10.7416 23.5995 10.5736 23.5684 10.4167 23.5051C10.2598 23.4417 10.1173 23.3474 9.99765 23.2277C9.878 23.1081 9.78368 22.9655 9.7203 22.8086C9.65693 22.6518 9.62581 22.4837 9.6288 22.3145C9.63178 22.1453 9.66881 21.9785 9.73768 21.8239C9.80654 21.6694 9.90584 21.5303 10.0296 21.4149L11.6592 19.7853L10.0296 18.1557C9.80706 17.9169 9.6859 17.601 9.69166 17.2745C9.69742 16.9481 9.82965 16.6367 10.0605 16.4058C10.2914 16.1749 10.6028 16.0427 10.9292 16.037C11.2557 16.0312 11.5716 16.1524 11.8104 16.3749L13.44 18.0045L15.0696 16.3749C15.3059 16.139 15.6261 16.0064 15.96 16.0064C16.2939 16.0064 16.6142 16.139 16.8504 16.3749ZM26.0199 17.2653C26.0199 16.8198 26.1969 16.3924 26.5119 16.0774C26.827 15.7623 27.2543 15.5853 27.6999 15.5853H27.7167C28.1622 15.5853 28.5896 15.7623 28.9046 16.0774C29.2197 16.3924 29.3967 16.8198 29.3967 17.2653C29.3967 17.7109 29.2197 18.1382 28.9046 18.4533C28.5896 18.7683 28.1622 18.9453 27.7167 18.9453H27.6999C27.2543 18.9453 26.827 18.7683 26.5119 18.4533C26.1969 18.1382 26.0199 17.7109 26.0199 17.2653ZM29.3799 22.3053C29.3799 21.8598 29.5569 21.4324 29.8719 21.1174C30.187 20.8023 30.6143 20.6253 31.0599 20.6253H31.0767C31.5222 20.6253 31.9496 20.8023 32.2646 21.1174C32.5797 21.4324 32.7567 21.8598 32.7567 22.3053C32.7567 22.7509 32.5797 23.1782 32.2646 23.4933C31.9496 23.8083 31.5222 23.9853 31.0767 23.9853H31.0599C30.6143 23.9853 30.187 23.8083 29.8719 23.4933C29.5569 23.1782 29.3799 22.7509 29.3799 22.3053Z" fill="#677DFF"/>
</svg>
